# xmcd
#
# Track frame offsets:
#	150
#	20012
#	32820
#	55254
#	72798
#	90624
#	103945
#	118617
#	138605
#	159115
#
# Disc length: 2348 seconds
# Revision: 0
# Processed by: cddbd v1.5.2PL0 Copyright (c) Steve Scherf et al.
# Submitted via: dBpowerAMP V12.0
#
DISCID=84092a0a
DTITLE=One Button Suit - One Button Suit
DYEAR=2016
DGENRE=Americana
TTITLE0=Cottonwood
TTITLE1=Cobbler's Reel
TTITLE2=Annabelle
TTITLE3=Ophelia
TTITLE4=Keeper of the Door
TTITLE5=Skillet Good And Greasy
TTITLE6=Bitter Tears
TTITLE7=Good For Nothin'
TTITLE8=Trees Are Blue
TTITLE9=Here on Earth
EXTD=
EXTT0=
EXTT1=
EXTT2=
EXTT3=
EXTT4=
EXTT5=
EXTT6=
EXTT7=
EXTT8=
EXTT9=
PLAYORDER=
